# xmcd CD database file
# Copyright (C) 1996 Ti Kan
#
# Track frame offsets:
# 	150
# 	12953
# 	27553
# 	38843
# 	52838
# 	67638
# 	83128
# 	94185
# 	109063
# 	122638
#
# Disc length: 1843 seconds
#
# Revision: 1
# Processed by: cddbd v1.4b41PL1 Copyright (c) Steve Scherf et al.
# Submitted via: DiscPlay 3.4.1
#
DISCID=7207310a
DTITLE=Mathews, Wright, and King - Power Of Love
DYEAR=1900
DGENRE=
TTITLE0=Power Of Love
TTITLE1=For A Moment There
TTITLE2=You Found A Way
TTITLE3=Someone's Child
TTITLE4=Standing In The River (Dying Of Thirst)
TTITLE5=Mother's Eyes
TTITLE6=When The River Runs High
TTITLE7=Leavin' Reasons
TTITLE8=House Huntin'
TTITLE9=Every Time She Says Yes
EXTD=
EXTT0=
EXTT1=
EXTT2=
EXTT3=
EXTT4=
EXTT5=
EXTT6=
EXTT7=
EXTT8=
EXTT9=
PLAYORDER=
